<svg width="20" height="18" viewBox="0 0 20 18" fill="none" xmlns="http://www.w3.org/2000/svg">
<path d="M13.8947 11H13.0632L12.7684 10.73C13.8 9.59 14.4211 8.11 14.4211 6.5C14.4211 2.91 11.3579 0 7.57895 0C3.80001 0 0.736847 2.91 0.736847 6.5C0.736847 10.09 3.80001 13 7.57895 13C9.27369 13 10.8316 12.41 12.0316 11.43L12.3158 11.71V12.5L17.579 17.49L19.1474 16L13.8947 11V11ZM7.57895 11C4.9579 11 2.84211 8.99 2.84211 6.5C2.84211 4.01 4.9579 2 7.57895 2C10.2 2 12.3158 4.01 12.3158 6.5C12.3158 8.99 10.2 11 7.57895 11Z" fill="#ADADAD"/>
</svg>
